# xmcd CD database file
#
# Track frame offsets:
#	150
#	23273
#	49554
#	69834
#	90500
#	106270
#	132533
#	159367
#	179731
#	201853
#	226814
#	253507
#	270686
#	288882
#
# Disc length: 4095 seconds
#
# Revision: 1
# Processed by: cddbd v1.5.1PL0 Copyright (c) Steve Scherf et al.
# Submitted via: CDex 1.51
#
DISCID=b20ffd0e
DTITLE=Gregorian - Masters Of Chant - Gregorian - Masters Of Chant III
DYEAR=2004
DGENRE=New Age
TTITLE0=Join Me
TTITLE1=Be
TTITLE2=Blasphemous Rumours
TTITLE3=Only You
TTITLE4=Blue Monday
TTITLE5=Sacrifice
TTITLE6=Ordinary World
TTITLE7=Fields of Gold
TTITLE8=Before The Dawn
TTITLE9=I Won´t Hold You Back
TTITLE10=Wicked Game
TTITLE11=Out of The Cold
TTITLE12=Voyage voyage
TTITLE13=Masters of Chant III - Join Me (Schill Out Version)
EXTD=YEAR: 2004
EXTT0=
EXTT1=
EXTT2=
EXTT3=
EXTT4=
EXTT5=
EXTT6=
EXTT7=
EXTT8=
EXTT9=
EXTT10=
EXTT11=
EXTT12=
EXTT13=
PLAYORDER=
